<?xml version="1.0" encoding="iso-8859-1"?>
<!-- Uploaded to: SVG Repo, www.svgrepo.com, Generator: SVG Repo Mixer Tools -->
<svg version="1.1" id="Layer_1" xmlns="http://www.w3.org/2000/svg" xmlns:xlink="http://www.w3.org/1999/xlink" 
	 viewBox="0 0 512.001 512.001" xml:space="preserve">
<path style="fill:#E6563A;" d="M276.093,471.306c-60.655,60.655-161.016,50.847-223.633-11.771
	c-65.599-65.599-69.836-165.568-11.771-223.633c29.112-29.112,69.522-43.158,112.915-39.628
	c4.003-21.263,13.654-39.861,28.327-54.534c36.331-36.331,96.752-41.039,146.814-11.378l-3.217,56.104l-3.531,62.382
	c5.728,21.422,25.816,37.743,48.807,37.036c0.078-0.078,0.078-0.078,0.156,0c13.027,0,20.951,14.202,14.203,25.345
	c-14.673,23.777-38.45,41.273-69.443,47.16C319.251,401.784,305.204,442.194,276.093,471.306z"/>
<path style="fill:#D9472B;" d="M276.093,471.306c-60.655,60.655-161.016,50.847-223.633-11.771l273.068-273.068l-3.531,62.382
	c5.728,21.422,25.816,37.743,48.807,37.036c0.078-0.078,0.078-0.078,0.156,0c13.027,0,20.951,14.202,14.203,25.345
	c-14.673,23.777-38.45,41.273-69.443,47.16C319.251,401.784,305.204,442.194,276.093,471.306z"/>
<g>
	<circle style="fill:#DAE1E6;" cx="134.851" cy="424.23" r="16.646"/>
	<circle style="fill:#DAE1E6;" cx="229.01" cy="424.23" r="16.646"/>
</g>
<rect x="253.626" y="86.373" transform="matrix(-0.7071 -0.7071 0.7071 -0.7071 370.825 570.4786)" style="fill:#736056;" width="99.872" height="244.133"/>
<path style="fill:#E6563A;" d="M501.258,112.719l-76.127,44.721l-35.288-35.289l-35.288-35.29l44.721-76.126
	c14.314-14.315,37.507-14.315,51.822,0l50.159,50.159C515.573,75.211,515.573,98.404,501.258,112.719z"/>
<path style="fill:#D9472B;" d="M501.258,112.719l-76.127,44.721l-35.288-35.289l86.335-86.335l25.079,25.079
	C515.573,75.211,515.573,98.404,501.258,112.719z"/>
<rect x="296.244" y="104.035" transform="matrix(0.7071 0.7071 -0.7071 0.7071 253.9588 -160.9076)" style="fill:#665247;" width="49.936" height="244.133"/>
<path style="fill:#736056;" d="M197.625,369.298l-54.927-54.927c-6.498-6.498-6.502-17.038,0-23.54
	c6.502-6.502,17.042-6.498,23.54,0l54.927,54.927c6.498,6.498,6.502,17.038,0,23.54C214.663,375.8,204.123,375.796,197.625,369.298z
	"/>
<path style="fill:#665247;" d="M221.165,345.757l-27.464-27.464l-23.54,23.54l27.464,27.464c6.498,6.498,17.038,6.502,23.54,0
	C227.667,362.796,227.664,352.256,221.165,345.757z"/>
</svg>